<svg width="44" height="28" viewBox="0 0 44 28" fill="none" xmlns="http://www.w3.org/2000/svg">
<path fill-rule="evenodd" clip-rule="evenodd" d="M32.8447 25.5H38.3749C39.8749 25.5 41.1405 24.4219 41.3749 22.9219L43.953 6.23438C44.0937 5.34375 43.3905 4.5 42.4999 4.5H35.5406C35.6934 5.47918 35.8096 6.4804 35.8869 7.5H40.7187L39.3124 16.5H35.5406C35.0262 19.7959 34.0977 22.8423 32.8447 25.5Z" fill="#0AADA6"/>
<path d="M31 0H3C1.75 0 0.8125 1.125 1 2.3125L4.5 24.5625C4.75 26.5625 6.4375 28 8.4375 28H25.5C27.5 28 29.1875 26.5625 29.5 24.5625L32.9375 2.3125C33.125 1.125 32.1875 0 31 0ZM28.625 4L26.75 16H7.1875L5.3125 4H28.625Z" fill="#0AADA6"/>
</svg>
