<svg width="800" height="188" viewBox="0 0 800 188" fill="none" xmlns="http://www.w3.org/2000/svg">
<path d="M130.629 171.443C127.199 167.887 122.468 165.878 117.531 165.878H115.969C111.025 165.878 106.295 167.887 102.863 171.444C102.828 171.48 102.795 171.515 102.761 171.549C101.296 173.069 100.443 175.073 100.365 177.185C100.218 181.173 102.844 184.75 106.699 185.771C109.92 186.622 113.49 187.374 115.388 187.455V187.474C115.607 187.483 115.824 187.479 116.042 187.483C116.276 187.488 116.513 187.49 116.747 187.49C116.981 187.49 117.217 187.488 117.453 187.483C117.671 187.479 117.886 187.483 118.105 187.474V187.455C120.001 187.374 123.572 186.622 126.796 185.77C130.659 184.746 133.282 181.156 133.127 177.164C133.044 175.059 132.192 173.062 130.733 171.547C130.697 171.512 130.662 171.479 130.629 171.443Z" fill="#EAEAEA"/>
<path d="M170.378 107.765C170.302 106.786 170.128 105.837 169.866 104.933C169.084 105.868 167.972 106.458 166.731 106.458C164.353 106.458 162.427 104.323 162.427 101.686C162.427 99.9628 163.259 98.4656 164.492 97.6259C162.806 96.5713 160.861 95.9625 158.788 95.9625C152.362 95.9625 147.152 101.74 147.152 108.87C147.152 108.932 147.159 108.987 147.161 109.048C145.974 108.729 144.797 108.358 143.636 107.92L138.858 106.113L144.6 99.0509C146.785 96.3633 149.429 94.0785 152.407 92.3092C156.712 89.7484 162.093 89.8499 166.3 92.5685C168.56 94.0303 170.318 96.1464 171.341 98.6374L174.339 105.951C173.046 106.64 171.724 107.238 170.378 107.765ZM89.8589 107.92C88.6978 108.358 87.5195 108.729 86.3336 109.048C86.3336 108.987 86.3413 108.932 86.3413 108.87C86.3413 107.467 86.1326 106.121 85.7623 104.856C85.1243 105.264 84.4014 105.515 83.6144 105.515C81.2401 105.515 79.3116 103.376 79.3116 100.742C79.3116 99.536 79.7257 98.4529 80.391 97.612C78.7054 96.5663 76.7718 95.9625 74.707 95.9625C68.6153 95.9625 63.6264 101.154 63.1222 107.766C61.774 107.238 60.4486 106.64 59.1562 105.951L62.1545 98.6374C63.1761 96.1464 64.9353 94.0303 67.1954 92.5685C71.4018 89.8499 76.7839 89.7484 81.0885 92.3092C84.0659 94.0785 86.7084 96.3633 88.8956 99.0509L94.6373 106.113L89.8589 107.92ZM231.458 28.1559C230.049 30.0133 228.136 32.3781 226.624 34.3415L226.581 34.0047C226.922 31.3799 227.266 28.7539 227.608 26.1291C227.956 23.4599 228.304 20.7876 228.474 18.1032C228.507 17.6162 227.875 17.3873 227.583 17.7747C226.831 18.7646 225.896 19.9391 224.999 21.0768L223.437 8.32451C222.916 4.07565 217.956 2.01972 214.582 4.65781L189.406 24.3338C182.862 29.4477 173.946 30.3082 166.543 26.5362L149.657 17.9333C139.735 12.8778 128.936 10.2707 118.106 10.083V10.0811H118.012C117.592 10.0729 117.168 10.0729 116.748 10.0729C116.324 10.0729 115.902 10.0729 115.481 10.0811H115.388V10.083C104.557 10.2707 93.759 12.8778 83.8395 17.9333L66.95 26.5362C59.5475 30.3082 50.6325 29.4477 44.0867 24.3338L17.331 3.42374C14.6523 1.32849 10.7135 2.95891 10.3007 6.33389L8.49589 21.0768C7.59856 19.9391 6.66445 18.7646 5.91297 17.7747C5.61872 17.3873 4.9871 17.6162 5.01945 18.1032C5.18877 20.7876 5.53755 23.4599 5.88506 26.1291C6.22688 28.7539 6.56804 31.3799 6.91176 34.0047L6.87117 34.3415C5.35681 32.3781 3.44419 30.0133 2.03572 28.1559C1.65396 27.6568 0.866343 27.9618 0.907563 28.5877C1.12064 31.9703 1.56137 35.3384 1.99957 38.6988C2.635 43.5887 3.27423 48.4825 3.91346 53.3712C4.31362 56.4437 5.24838 64.0397 6.32898 71.1854C6.55665 72.6769 8.68804 72.741 9.00132 71.2627L18.9322 24.7936C19.9519 22.1935 23.2096 21.3476 25.3632 23.1219L28.5486 25.0238C39.1238 31.3394 53.3346 51.4561 53.3346 51.4561C55.0304 52.8563 54.492 55.5788 52.3904 56.2275C49.2989 57.1787 46.2714 58.2993 43.3238 59.5822C34.9225 63.2413 27.0127 68.0006 20.6679 74.1145C13.5818 80.947 11.1511 91.3072 14.2826 100.641L20.6603 119.654C21.2184 122.369 22.1753 124.944 23.4601 127.311C24.4171 129.075 25.5579 130.723 26.8573 132.236C27.662 133.169 29.158 132.327 28.8365 131.137C28.4642 129.739 28.196 128.301 27.9842 126.844C28.0064 126.755 28.0723 126.685 28.1649 126.685C28.2423 126.685 28.3051 126.727 28.3399 126.789L28.3717 126.733C29.3724 128.679 30.5392 130.528 31.947 132.176C32.7645 133.131 34.2909 132.312 33.9675 131.101C33.7779 130.392 33.6155 129.671 33.4658 128.947C33.4658 128.824 33.566 128.724 33.6916 128.724C33.7214 128.724 33.7487 128.729 33.7766 128.738V128.736L49.7872 136.983C52.8926 138.582 56.5187 138.84 59.8246 137.699L88.1334 127.915C94.2162 125.81 100.917 128.558 103.775 134.327L108.257 143.372C109.503 145.888 111.744 147.831 114.472 148.497C118.866 149.572 123.228 147.425 125.141 143.564L129.721 134.327C132.578 128.558 139.276 125.81 145.364 127.915L173.67 137.699C176.971 138.84 180.599 138.582 183.709 136.983L199.718 128.736L199.719 128.738C199.743 128.729 199.774 128.724 199.805 128.724C199.928 128.724 200.027 128.824 200.027 128.947C199.878 129.671 199.715 130.392 199.527 131.101C199.2 132.312 200.729 133.131 201.545 132.176C202.956 130.528 204.121 128.679 205.121 126.733L205.153 126.789C205.186 126.727 205.253 126.685 205.326 126.685C205.422 126.685 205.489 126.755 205.508 126.844C205.297 128.301 205.031 129.739 204.656 131.137C204.331 132.345 205.844 133.157 206.659 132.207C209.384 129.034 211.409 125.245 212.502 121.076L219.337 100.447C222.433 91.1055 219.98 80.7504 212.864 73.9522C206.547 67.9144 198.701 63.2089 190.374 59.5822C187.423 58.2993 184.395 57.1787 181.308 56.2275C179.205 55.5788 180.362 51.4561 180.362 51.4561C185.985 40.4979 194.572 31.3394 205.147 25.0238L208.333 23.1219C210.487 21.3476 213.747 22.1935 214.763 24.7936L224.574 70.7053C224.891 72.1867 227.024 72.1201 227.248 70.6279C228.295 63.6471 229.19 56.3626 229.582 53.3712C230.221 48.4825 230.856 43.5887 231.495 38.6988C231.932 35.3384 232.37 31.9703 232.588 28.5877C232.626 27.9618 231.838 27.6568 231.458 28.1559" fill="#EAEAEA"/>
<path d="M296.589 183.983V161.123L344.213 28.6781H302.104V3.61407H379.905V26.5741L332.081 158.918H379.905V183.983H296.589Z" fill="#EAEAEA"/>
<path d="M392.17 183.983V3.51407H467.466V28.5794H428.665V77.7074H456.137V103.374H428.665V158.918H467.466V183.983H392.17Z" fill="#EAEAEA"/>
<path d="M479.267 183.983V3.41275H505.535L545.137 97.8581V3.41275H575.416V183.983H550.151L510.648 83.8221V183.983H479.267Z" fill="#EAEAEA"/>
<path d="M762.623 132.85V54.8476C762.623 37.0689 757.175 28.1783 746.281 28.1783C743.005 28.1783 740.231 28.9956 737.959 30.6342C735.686 32.2716 734.015 34.5116 732.946 37.3529C731.875 40.1942 731.125 43.0009 730.69 45.7742C730.255 48.5476 730.039 51.5716 730.039 54.8476V132.85C730.039 150.564 735.453 159.418 746.281 159.418C757.175 159.418 762.623 150.564 762.623 132.85ZM693.543 124.629V63.9702C693.543 21.3262 711.122 0.00357156 746.281 0.00357156C781.505 0.00357156 799.118 21.3262 799.118 63.9702V123.725C799.118 130.944 798.583 137.613 797.514 143.728C796.443 149.845 794.622 155.642 792.049 161.124C789.477 166.605 786.201 171.268 782.223 175.11C778.247 178.954 773.217 181.978 767.135 184.184C761.051 186.389 754.101 187.49 746.281 187.49C738.527 187.49 731.609 186.405 725.527 184.233C719.443 182.061 714.43 179.121 710.487 175.41C706.543 171.702 703.285 167.156 700.713 161.774C698.139 156.394 696.302 150.662 695.198 144.58C694.095 138.498 693.543 131.848 693.543 124.629" fill="#EAEAEA"/>
<path d="M591.123 183.983V3.51407H627.618V71.9914L655.891 3.51407H696.698L659.902 77.4047L699.405 183.983H661.506L634.235 101.467L627.618 118.511V183.983H591.123Z" fill="#EAEAEA"/>
</svg>
